# xmcd
# Copyright (C) 1995-1998 Ti Kan
#
# Track frame offsets:
#       150
#       17685
#       35787
#       49372
#
# Disc length: 904 seconds
#
# Revision: 0
# Processed by: cddbd v1.4PL0 Copyright (c) Steve Scherf et al.
# Submitted via: CD-Transfer v1.0
#
DISCID=31038604
DTITLE=Baeng - Grossi Wält
DYEAR=2002
DGENRE=
TTITLE0=Mit De Wulche Zieh
TTITLE1=We Mir Wei
TTITLE2=Grossi Wält
TTITLE3=Summer
EXTD=
EXTT0=
EXTT1=
EXTT2=
EXTT3=
PLAYORDER=
